<svg width="68" height="37" viewBox="0 0 68 37" fill="none" xmlns="http://www.w3.org/2000/svg">
<rect width="68" height="37" rx="10" fill="#F5F6FA"/>
<path d="M18.562 23.4363H22.5476" stroke="#1D1E20" stroke-linecap="round" stroke-linejoin="round"/>
<path fill-rule="evenodd" clip-rule="evenodd" d="M18.0342 14.0973C18.4948 13.5104 19.2392 13.541 19.8267 14.0017L20.6954 14.6829C21.2829 15.1435 21.4911 15.8579 21.0304 16.4461L15.8498 23.0554C15.6767 23.2767 15.4123 23.4073 15.1311 23.4104L13.1329 23.4361L12.6804 21.4892C12.6167 21.2161 12.6804 20.9286 12.8536 20.7067L18.0342 14.0973Z" stroke="#1D1E20" stroke-linecap="round" stroke-linejoin="round"/>
<path d="M17.064 15.3351L20.0602 17.6838" stroke="#1D1E20" stroke-linecap="round" stroke-linejoin="round"/>
<path d="M31.1985 24H38.1019V22.5831H32.8445V19.2433H37.6811V17.8317H32.8445V14.5078H38.038V13.0909H31.1985V24ZM43.1716 24.1598C44.6631 24.1598 45.249 23.2489 45.5367 22.7269H45.6698V24H47.2252V13.0909H45.6325V17.1445H45.5367C45.249 16.6385 44.7057 15.7116 43.1823 15.7116C41.2061 15.7116 39.7519 17.2724 39.7519 19.9251C39.7519 22.5724 41.1847 24.1598 43.1716 24.1598ZM43.5232 22.8015C42.1009 22.8015 41.3605 21.5497 41.3605 19.9091C41.3605 18.2844 42.085 17.0646 43.5232 17.0646C44.9134 17.0646 45.6592 18.1992 45.6592 19.9091C45.6592 21.6296 44.8975 22.8015 43.5232 22.8015ZM49.4984 24H51.0911V15.8182H49.4984V24ZM50.3027 14.5558C50.8514 14.5558 51.3095 14.1296 51.3095 13.6076C51.3095 13.0856 50.8514 12.6541 50.3027 12.6541C49.7488 12.6541 49.296 13.0856 49.296 13.6076C49.296 14.1296 49.7488 14.5558 50.3027 14.5558ZM57.053 15.8182H55.3751V13.858H53.7824V15.8182H52.5839V17.0966H53.7824V21.9279C53.7771 23.4141 54.9117 24.1332 56.1688 24.1065C56.6748 24.1012 57.0157 24.0053 57.2021 23.9361L56.9145 22.6204C56.808 22.6417 56.6109 22.6896 56.3552 22.6896C55.8385 22.6896 55.3751 22.5192 55.3751 21.5977V17.0966H57.053V15.8182Z" fill="#1D1E20"/>
</svg>
