<svg width="71" height="37" viewBox="0 0 71 37" fill="none" xmlns="http://www.w3.org/2000/svg">
<rect width="71" height="37" rx="10" fill="#F5F6FA"/>
<path d="M11.875 15.375H23.125" stroke="#1D1E20" stroke-linecap="round" stroke-linejoin="round"/>
<path d="M11.875 18.5H20.625" stroke="#1D1E20" stroke-linecap="round" stroke-linejoin="round"/>
<path d="M11.875 21.625H18.125" stroke="#1D1E20" stroke-linecap="round" stroke-linejoin="round"/>
<path d="M37.1484 15.9567H38.7358C38.6879 14.2095 37.1431 12.9418 34.9272 12.9418C32.7379 12.9418 31.06 14.1935 31.06 16.0739C31.06 17.592 32.1467 18.4815 33.8991 18.9556L35.1882 19.3072C36.3548 19.6161 37.255 19.9996 37.255 20.9691C37.255 22.0344 36.2376 22.7376 34.8366 22.7376C33.5689 22.7376 32.5142 22.1729 32.4183 20.9851H30.767C30.8736 22.9613 32.4023 24.1811 34.8473 24.1811C37.4094 24.1811 38.8849 22.8335 38.8849 20.9851C38.8849 19.0195 37.1325 18.2578 35.7475 17.9169L34.6822 17.6399C33.8299 17.4215 32.6953 17.022 32.7006 15.978C32.7006 15.0511 33.5476 14.364 34.8899 14.364C36.1417 14.364 37.0312 14.9499 37.1484 15.9567ZM44.1704 24.1651C46.4768 24.1651 47.9843 22.4766 47.9843 19.9464C47.9843 17.4002 46.4768 15.7116 44.1704 15.7116C41.8639 15.7116 40.3564 17.4002 40.3564 19.9464C40.3564 22.4766 41.8639 24.1651 44.1704 24.1651ZM44.1757 22.8281C42.6682 22.8281 41.9651 21.5124 41.9651 19.9411C41.9651 18.375 42.6682 17.0433 44.1757 17.0433C45.6725 17.0433 46.3756 18.375 46.3756 19.9411C46.3756 21.5124 45.6725 22.8281 44.1757 22.8281ZM49.7621 24H51.3548V19.0036C51.3548 17.9329 52.1804 17.1605 53.3097 17.1605C53.6399 17.1605 54.0128 17.2191 54.1406 17.2564V15.733C53.9808 15.7116 53.6665 15.6957 53.4641 15.6957C52.5053 15.6957 51.685 16.239 51.3867 17.1179H51.3015V15.8182H49.7621V24ZM59.8216 15.8182H58.1436V13.858H56.551V15.8182H55.3525V17.0966H56.551V21.9279C56.5456 23.4141 57.6802 24.1332 58.9373 24.1065C59.4434 24.1012 59.7843 24.0053 59.9707 23.9361L59.6831 22.6204C59.5765 22.6417 59.3794 22.6896 59.1238 22.6896C58.6071 22.6896 58.1436 22.5192 58.1436 21.5977V17.0966H59.8216V15.8182Z" fill="#1D1E20"/>
</svg>
